<?xml version="1.0" encoding="UTF-8"?>
<svg id="Layer_2" data-name="Layer 2" xmlns="http://www.w3.org/2000/svg" viewBox="0 0 519.35 401.11">
  <defs>
    <style>
      .cls-1 {
        fill: #666;
      }
    </style>
  </defs>
  <g id="Layer_6" data-name="Layer 6">
    <g>
      <g>
        <path class="cls-1" d="M264.99,83.61l49.96,25.84c1.39.72,3.05-.25,3.1-1.82l.1-2.76v-41.36c0-.78-.43-1.5-1.11-1.87L204.34.26c-1.42-.77-3.14.25-3.14,1.87v44.55c0,.77.42,1.48,1.09,1.86l62.71,35.08h0Z"/>
        <path d="M318.15,107.98v-44.55c0-1.61-1.73-2.64-3.15-1.87l-112.7,61.51c-.68.37-1.11,1.09-1.11,1.87v40.1c0,.78.43,1.5,1.11,1.87l112.7,61.38c1.42.77,3.14-.25,3.14-1.87v-44.55c0-.77-.42-1.48-1.09-1.86l-59.39-33.22c-1.45-.81-1.45-2.9,0-3.71l59.39-33.26c.67-.38,1.09-1.09,1.09-1.86Z"/>
      </g>
      <g>
        <path d="M74.85,357.81l21.24,36.61c1.31,2.29,1.63,5.07-1.63,5.07h-25.17c-2.61,0-4.25-.49-5.56-2.94l-17.49-33.34h-17.49v33.34c0,1.63-1.31,2.94-2.94,2.94H2.94c-1.63,0-2.94-1.31-2.94-2.94v-105.41c0-1.63,1.31-2.94,2.94-2.94h49.52c10.95,0,21.25,2.29,28.6,8.01,8.33,6.54,12.91,17.49,12.91,29.25,0,9.81-3.43,19.61-12.26,27.46-2.29,1.96-4.58,3.6-6.86,4.9ZM28.76,312.54v26.47h19.28c5.07,0,8.99-.65,11.6-2.45,3.1-1.96,5.07-5.72,5.07-10.79s-1.63-8.33-4.58-10.46c-2.61-1.96-6.21-2.78-9.64-2.78h-21.73Z"/>
        <path d="M98.05,343.75c0-33.01,26.47-57.03,60.47-57.03,15.36,0,25.66,3.43,33.34,7.19,1.8.98,1.8,2.45,1.14,3.76l-9.31,19.45c-.82,1.47-2.12,1.63-3.6,1.14-7.03-3.27-13.73-5.56-22.39-5.56-16.02,0-29.58,12.75-29.58,31.05s12.58,31.21,29.74,31.21c8.66,0,16.18-2.12,23.37-5.72,1.63-.82,2.61-.65,3.43.98l9.31,19.77c.65,1.63.33,2.78-1.31,3.6-8.99,4.25-19.61,7.52-34.97,7.52-37.42,0-59.65-22.06-59.65-57.36Z"/>
        <path d="M251.83,401.11c-32.36,0-60.3-22.55-60.3-57.03s27.95-57.36,60.3-57.36,60.14,22.55,60.14,57.36-27.94,57.03-60.14,57.03ZM251.83,313.68c-17.32,0-29.74,12.75-29.74,30.4s12.42,30.23,29.74,30.23,29.58-12.58,29.58-30.23-12.26-30.4-29.58-30.4Z"/>
        <path d="M400.38,391.47c-11.6,6.54-24.51,8.01-36.61,8.01h-40.69c-1.63,0-2.94-1.31-2.94-2.94v-105.41c0-1.63,1.31-2.94,2.94-2.94h42.82c16.34,0,32.03,2.61,45.59,16.67,8.17,8.5,13.73,21.08,13.73,38.89,0,19.28-6.7,37.42-24.84,47.72ZM348.9,375.29h12.91c7.19,0,13.73-.98,19.12-3.59,11.11-5.23,14.87-15.85,14.87-27.95,0-10.46-2.78-17.81-7.68-22.72-6.05-6.21-15.2-8.66-26.31-8.66h-12.91v62.92Z"/>
        <path d="M516.41,288.19c1.63,0,2.94,1.31,2.94,2.94v19.61c0,1.63-1.31,2.94-2.94,2.94h-54.26v17h45.59c1.63,0,2.94,1.31,2.94,2.94v19.61c0,1.63-1.31,2.94-2.94,2.94h-45.59v17.81h54.26c1.63,0,2.94,1.31,2.94,2.94v19.61c0,1.63-1.31,2.94-2.94,2.94h-80.08c-1.63,0-2.94-1.31-2.94-2.94v-105.41c0-1.63,1.31-2.94,2.94-2.94h80.08Z"/>
      </g>
    </g>
  </g>
</svg>