<?xml version="1.0" encoding="UTF-8"?>
<svg id="Layer_2" data-name="Layer 2" xmlns="http://www.w3.org/2000/svg" viewBox="0 0 803.24 228.56">
  <defs>
    <style>
      .cls-1 {
        fill: #666;
      }
    </style>
  </defs>
  <g id="Layer_6" data-name="Layer 6">
    <g>
      <g>
        <path d="M358.73,127.96l21.24,36.61c1.31,2.29,1.63,5.07-1.63,5.07h-25.17c-2.61,0-4.25-.49-5.56-2.94l-17.49-33.34h-17.49v33.34c0,1.63-1.31,2.94-2.94,2.94h-22.88c-1.63,0-2.94-1.31-2.94-2.94V61.28c0-1.63,1.31-2.94,2.94-2.94h49.52c10.95,0,21.25,2.29,28.6,8.01,8.33,6.54,12.91,17.49,12.91,29.25,0,9.81-3.43,19.61-12.26,27.46-2.29,1.96-4.58,3.6-6.86,4.9ZM312.65,82.69v26.47h19.28c5.07,0,8.99-.65,11.6-2.45,3.1-1.96,5.07-5.72,5.07-10.79s-1.63-8.33-4.58-10.46c-2.61-1.96-6.21-2.78-9.64-2.78h-21.73Z"/>
        <path d="M381.94,113.91c0-33.01,26.47-57.03,60.47-57.03,15.36,0,25.66,3.43,33.34,7.19,1.8.98,1.8,2.45,1.14,3.76l-9.31,19.45c-.82,1.47-2.12,1.63-3.6,1.14-7.03-3.27-13.73-5.56-22.39-5.56-16.02,0-29.58,12.75-29.58,31.05s12.58,31.21,29.74,31.21c8.66,0,16.18-2.12,23.37-5.72,1.63-.82,2.61-.65,3.43.98l9.31,19.77c.65,1.63.33,2.78-1.31,3.6-8.99,4.25-19.61,7.52-34.97,7.52-37.42,0-59.65-22.06-59.65-57.36Z"/>
        <path d="M535.72,171.27c-32.36,0-60.3-22.55-60.3-57.03s27.95-57.36,60.3-57.36,60.14,22.55,60.14,57.36-27.94,57.03-60.14,57.03ZM535.72,83.84c-17.32,0-29.74,12.75-29.74,30.4s12.42,30.23,29.74,30.23,29.58-12.58,29.58-30.23-12.26-30.4-29.58-30.4Z"/>
        <path d="M684.27,161.62c-11.6,6.54-24.51,8.01-36.61,8.01h-40.69c-1.63,0-2.94-1.31-2.94-2.94V61.28c0-1.63,1.31-2.94,2.94-2.94h42.82c16.34,0,32.03,2.61,45.59,16.67,8.17,8.5,13.73,21.08,13.73,38.89,0,19.28-6.7,37.42-24.84,47.72ZM632.79,145.45h12.91c7.19,0,13.73-.98,19.12-3.59,11.11-5.23,14.87-15.85,14.87-27.95,0-10.46-2.78-17.81-7.68-22.72-6.05-6.21-15.2-8.66-26.31-8.66h-12.91v62.92Z"/>
        <path d="M800.3,58.34c1.63,0,2.94,1.31,2.94,2.94v19.61c0,1.63-1.31,2.94-2.94,2.94h-54.26v17h45.59c1.63,0,2.94,1.31,2.94,2.94v19.61c0,1.63-1.31,2.94-2.94,2.94h-45.59v17.81h54.26c1.63,0,2.94,1.31,2.94,2.94v19.61c0,1.63-1.31,2.94-2.94,2.94h-80.08c-1.63,0-2.94-1.31-2.94-2.94V61.28c0-1.63,1.31-2.94,2.94-2.94h80.08Z"/>
      </g>
      <g>
        <path d="M114.28,228.56C51.26,228.56,0,177.29,0,114.28S51.26,0,114.28,0s114.28,51.27,114.28,114.28-51.27,114.28-114.28,114.28ZM114.28,25.15c-49.14,0-89.13,39.98-89.13,89.13s39.98,89.13,89.13,89.13,89.13-39.98,89.13-89.13S163.42,25.15,114.28,25.15Z"/>
        <g>
          <path class="cls-1" d="M117.23,97.23l27.77,14.37c.77.4,1.69-.14,1.72-1.01l.05-1.54v-22.99c0-.43-.24-.83-.62-1.04l-62.65-34.12c-.79-.43-1.75.14-1.75,1.04v24.76c0,.43.23.82.6,1.03l34.86,19.5h0Z"/>
          <path d="M146.78,110.78v-24.76c0-.9-.96-1.47-1.75-1.04l-62.65,34.19c-.38.21-.62.61-.62,1.04v22.29c0,.43.24.83.62,1.04l62.65,34.12c.79.43,1.75-.14,1.75-1.04v-24.76c0-.43-.23-.82-.6-1.03l-33.01-18.47c-.81-.45-.81-1.61,0-2.06l33.01-18.49c.37-.21.6-.6.6-1.03Z"/>
        </g>
      </g>
    </g>
  </g>
</svg>